<?xml version="1.0" encoding="utf-8"?>
<!-- Generator: Adobe Illustrator 16.0.4, SVG Export Plug-In . SVG Version: 6.00 Build 0)  -->
<!DOCTYPE svg PUBLIC "-//W3C//DTD SVG 1.1//EN" "http://www.w3.org/Graphics/SVG/1.1/DTD/svg11.dtd">
<svg version="1.1" id="Layer_1" xmlns="http://www.w3.org/2000/svg" xmlns:xlink="http://www.w3.org/1999/xlink" x="0px" y="0px"
	 width="230.938px" height="45.751px" viewBox="0 0 230.938 45.751" enable-background="new 0 0 230.938 45.751"
	 xml:space="preserve">
<rect x="0.426" y="-0.17" width="231" height="46"/>
<g>
	<g>
		<path fill="#FFFFFF" d="M30.508,31.665h-5.859v5.859H7.07V8.256h17.578v5.859h5.859v5.859h-5.859v5.859l5.859-0.029V31.665z
			 M24.648,19.975v-5.859H12.93v5.859H24.648z M24.648,31.665v-5.859L12.93,25.834v5.83H24.648z"/>
		<path fill="#FFFFFF" d="M53.945,37.524H36.367V8.227h5.859v23.438h11.719V37.524z"/>
		<path fill="#FF0025" d="M89.102,37.524h-5.859v-5.859h-5.859v-5.859h-5.859v5.859h-5.859v5.859h-5.859v-5.859h5.859v-5.859h5.859
			v-5.83h-5.859v-5.859h-5.859V8.256h5.859v5.859h5.859v5.859h5.859v-5.859h5.859V8.256h5.859v5.859h-5.859v5.859h-5.859v5.83h5.859
			v5.859h5.859V37.524z"/>
		<path fill="#FFFFFF" d="M112.539,37.524H100.82v-5.859h-5.859V14.086h5.859V8.227h11.719v5.859H100.82v17.578h11.719V37.524z"/>
		<path fill="#FFFFFF" d="M124.258,37.524h-5.859V8.227h5.859V37.524z"/>
		<path fill="#FFFFFF" d="M147.695,14.086h-5.859v23.438h-5.859V14.086h-5.859V8.227h17.578V14.086z"/>
		<path fill="#FFFFFF" d="M176.992,31.665h-5.859v5.859h-11.719v-5.859h-5.859V14.086h5.859V8.227h11.719v5.859h5.859V31.665z
			 M171.133,31.665V14.086h-11.719v17.578H171.133z"/>
		<path fill="#FFFFFF" d="M200.43,25.805h-11.719v11.719h-5.859V8.227h17.578v5.859h-11.719v5.859h11.719V25.805z"/>
		<path fill="#FFFFFF" d="M223.867,25.805h-11.719v11.719h-5.859V8.227h17.578v5.859h-11.719v5.859h11.719V25.805z"/>
	</g>
</g>
</svg>
